{
  "genre": "melodic_house",
  "key": "A",
  "scale": "minor",
  "tempo": 124,
  "bars": 8,
  "seed": 240713,
  "structure": "loop",
  "progression": [
    {
      "d": 0,
      "q": "9"
    },
    {
      "d": 5,
      "q": "add9"
    },
    {
      "d": 3,
      "q": "9"
    },
    {
      "d": 4,
      "q": "sus4"
    },
    {
      "d": 0,
      "q": "9"
    },
    {
      "d": 5,
      "q": "add9"
    },
    {
      "d": 3,
      "q": "7"
    },
    {
      "d": 4,
      "q": "add9"
    }
  ],
  "sections": [
    {
      "name": "loop",
      "start": 0,
      "bars": 8
    }
  ],
  "tracks": [
    {
      "id": "kick",
      "name": "Kick",
      "type": "kick",
      "notes": [
        {
          "pitch": 36,
          "start": 0,
          "dur": 0.22,
          "vel": 91
        },
        {
          "pitch": 36,
          "start": 1,
          "dur": 0.22,
          "vel": 98
        },
        {
          "pitch": 36,
          "start": 2,
          "dur": 0.22,
          "vel": 91
        },
        {
          "pitch": 36,
          "start": 3,
          "dur": 0.22,
          "vel": 98
        },
        {
          "pitch": 36,
          "start": 4,
          "dur": 0.22,
          "vel": 92
        },
        {
          "pitch": 36,
          "start": 5,
          "dur": 0.22,
          "vel": 98
        },
        {
          "pitch": 36,
          "start": 6,
          "dur": 0.22,
          "vel": 96
        },
        {
          "pitch": 36,
          "start": 7,
          "dur": 0.22,
          "vel": 96
        },
        {
          "pitch": 36,
          "start": 8,
          "dur": 0.22,
          "vel": 91
        },
        {
          "pitch": 36,
          "start": 9,
          "dur": 0.22,
          "vel": 94
        },
        {
          "pitch": 36,
          "start": 10,
          "dur": 0.22,
          "vel": 91
        },
        {
          "pitch": 36,
          "start": 11,
          "dur": 0.22,
          "vel": 93
        },
        {
          "pitch": 36,
          "start": 12,
          "dur": 0.22,
          "vel": 94
        },
        {
          "pitch": 36,
          "start": 13,
          "dur": 0.22,
          "vel": 100
        },
        {
          "pitch": 36,
          "start": 14,
          "dur": 0.22,
          "vel": 96
        },
        {
          "pitch": 36,
          "start": 15,
          "dur": 0.22,
          "vel": 93
        },
        {
          "pitch": 36,
          "start": 16,
          "dur": 0.22,
          "vel": 100
        },
        {
          "pitch": 36,
          "start": 17,
          "dur": 0.22,
          "vel": 94
        },
        {
          "pitch": 36,
          "start": 18,
          "dur": 0.22,
          "vel": 96
        },
        {
          "pitch": 36,
          "start": 19,
          "dur": 0.22,
          "vel": 96
        },
        {
          "pitch": 36,
          "start": 20,
          "dur": 0.22,
          "vel": 92
        },
        {
          "pitch": 36,
          "start": 21,
          "dur": 0.22,
          "vel": 97
        },
        {
          "pitch": 36,
          "start": 22,
          "dur": 0.22,
          "vel": 91
        },
        {
          "pitch": 36,
          "start": 23,
          "dur": 0.22,
          "vel": 99
        },
        {
          "pitch": 36,
          "start": 24,
          "dur": 0.22,
          "vel": 93
        },
        {
          "pitch": 36,
          "start": 25,
          "dur": 0.22,
          "vel": 96
        },
        {
          "pitch": 36,
          "start": 26,
          "dur": 0.22,
          "vel": 99
        },
        {
          "pitch": 36,
          "start": 27,
          "dur": 0.22,
          "vel": 101
        },
        {
          "pitch": 36,
          "start": 28,
          "dur": 0.22,
          "vel": 92
        },
        {
          "pitch": 36,
          "start": 29,
          "dur": 0.22,
          "vel": 94
        },
        {
          "pitch": 36,
          "start": 30,
          "dur": 0.22,
          "vel": 95
        },
        {
          "pitch": 36,
          "start": 31,
          "dur": 0.22,
          "vel": 90
        }
      ]
    },
    {
      "id": "snare",
      "name": "Snare/Clap",
      "type": "snare",
      "notes": [
        {
          "pitch": 39,
          "start": 1,
          "dur": 0.22,
          "vel": 100
        },
        {
          "pitch": 39,
          "start": 3,
          "dur": 0.22,
          "vel": 98
        },
        {
          "pitch": 39,
          "start": 3.5,
          "dur": 0.22,
          "vel": 54
        },
        {
          "pitch": 39,
          "start": 4.5,
          "dur": 0.22,
          "vel": 47
        },
        {
          "pitch": 39,
          "start": 5,
          "dur": 0.22,
          "vel": 91
        },
        {
          "pitch": 39,
          "start": 7,
          "dur": 0.22,
          "vel": 98
        },
        {
          "pitch": 39,
          "start": 9,
          "dur": 0.22,
          "vel": 98
        },
        {
          "pitch": 39,
          "start": 11,
          "dur": 0.22,
          "vel": 97
        },
        {
          "pitch": 39,
          "start": 13,
          "dur": 0.22,
          "vel": 91
        },
        {
          "pitch": 39,
          "start": 15,
          "dur": 0.22,
          "vel": 90
        },
        {
          "pitch": 39,
          "start": 17,
          "dur": 0.22,
          "vel": 94
        },
        {
          "pitch": 39,
          "start": 19,
          "dur": 0.22,
          "vel": 93
        },
        {
          "pitch": 39,
          "start": 21,
          "dur": 0.22,
          "vel": 96
        },
        {
          "pitch": 39,
          "start": 23,
          "dur": 0.22,
          "vel": 94
        },
        {
          "pitch": 39,
          "start": 25,
          "dur": 0.22,
          "vel": 100
        },
        {
          "pitch": 39,
          "start": 27,
          "dur": 0.22,
          "vel": 99
        },
        {
          "pitch": 39,
          "start": 29,
          "dur": 0.22,
          "vel": 98
        },
        {
          "pitch": 39,
          "start": 31,
          "dur": 0.22,
          "vel": 93
        }
      ]
    },
    {
      "id": "hats",
      "name": "Hats",
      "type": "hats",
      "notes": [
        {
          "pitch": 42,
          "start": 0.5,
          "dur": 0.22,
          "vel": 101
        },
        {
          "pitch": 46,
          "start": 0.5,
          "dur": 0.22,
          "vel": 100
        },
        {
          "pitch": 46,
          "start": 1,
          "dur": 0.22,
          "vel": 49
        },
        {
          "pitch": 42,
          "start": 1.5,
          "dur": 0.22,
          "vel": 97
        },
        {
          "pitch": 46,
          "start": 1.5,
          "dur": 0.22,
          "vel": 98
        },
        {
          "pitch": 46,
          "start": 2.5,
          "dur": 0.22,
          "vel": 94
        },
        {
          "pitch": 42,
          "start": 3.5,
          "dur": 0.22,
          "vel": 95
        },
        {
          "pitch": 46,
          "start": 3.5,
          "dur": 0.22,
          "vel": 92
        },
        {
          "pitch": 42,
          "start": 4.5,
          "dur": 0.22,
          "vel": 100
        },
        {
          "pitch": 46,
          "start": 4.5,
          "dur": 0.22,
          "vel": 90
        },
        {
          "pitch": 42,
          "start": 5.5,
          "dur": 0.22,
          "vel": 99
        },
        {
          "pitch": 46,
          "start": 5.5,
          "dur": 0.22,
          "vel": 98
        },
        {
          "pitch": 42,
          "start": 6.5,
          "dur": 0.22,
          "vel": 93
        },
        {
          "pitch": 46,
          "start": 6.5,
          "dur": 0.22,
          "vel": 99
        },
        {
          "pitch": 42,
          "start": 7.5,
          "dur": 0.22,
          "vel": 96
        },
        {
          "pitch": 46,
          "start": 7.5,
          "dur": 0.22,
          "vel": 99
        },
        {
          "pitch": 42,
          "start": 8.5,
          "dur": 0.22,
          "vel": 90
        },
        {
          "pitch": 46,
          "start": 8.5,
          "dur": 0.22,
          "vel": 99
        },
        {
          "pitch": 42,
          "start": 9.5,
          "dur": 0.22,
          "vel": 96
        },
        {
          "pitch": 46,
          "start": 9.5,
          "dur": 0.22,
          "vel": 99
        },
        {
          "pitch": 42,
          "start": 10.5,
          "dur": 0.22,
          "vel": 92
        },
        {
          "pitch": 46,
          "start": 10.5,
          "dur": 0.22,
          "vel": 95
        },
        {
          "pitch": 42,
          "start": 11.5,
          "dur": 0.22,
          "vel": 94
        },
        {
          "pitch": 46,
          "start": 11.5,
          "dur": 0.22,
          "vel": 94
        },
        {
          "pitch": 42,
          "start": 12.5,
          "dur": 0.22,
          "vel": 98
        },
        {
          "pitch": 46,
          "start": 12.5,
          "dur": 0.22,
          "vel": 91
        },
        {
          "pitch": 42,
          "start": 13.5,
          "dur": 0.22,
          "vel": 94
        },
        {
          "pitch": 46,
          "start": 13.5,
          "dur": 0.22,
          "vel": 92
        },
        {
          "pitch": 42,
          "start": 14.5,
          "dur": 0.22,
          "vel": 95
        },
        {
          "pitch": 46,
          "start": 14.5,
          "dur": 0.22,
          "vel": 91
        },
        {
          "pitch": 46,
          "start": 15.5,
          "dur": 0.22,
          "vel": 98
        },
        {
          "pitch": 42,
          "start": 16.5,
          "dur": 0.22,
          "vel": 99
        },
        {
          "pitch": 46,
          "start": 16.5,
          "dur": 0.22,
          "vel": 95
        },
        {
          "pitch": 42,
          "start": 17.5,
          "dur": 0.22,
          "vel": 93
        },
        {
          "pitch": 46,
          "start": 17.5,
          "dur": 0.22,
          "vel": 94
        },
        {
          "pitch": 42,
          "start": 18.5,
          "dur": 0.22,
          "vel": 98
        },
        {
          "pitch": 46,
          "start": 18.5,
          "dur": 0.22,
          "vel": 99
        },
        {
          "pitch": 42,
          "start": 19.5,
          "dur": 0.22,
          "vel": 97
        },
        {
          "pitch": 46,
          "start": 19.5,
          "dur": 0.22,
          "vel": 95
        },
        {
          "pitch": 42,
          "start": 19.76,
          "dur": 0.22,
          "vel": 46
        },
        {
          "pitch": 42,
          "start": 20.5,
          "dur": 0.22,
          "vel": 95
        },
        {
          "pitch": 46,
          "start": 20.5,
          "dur": 0.22,
          "vel": 96
        },
        {
          "pitch": 42,
          "start": 21.5,
          "dur": 0.22,
          "vel": 98
        },
        {
          "pitch": 46,
          "start": 21.5,
          "dur": 0.22,
          "vel": 95
        },
        {
          "pitch": 42,
          "start": 22.5,
          "dur": 0.22,
          "vel": 93
        },
        {
          "pitch": 46,
          "start": 22.5,
          "dur": 0.22,
          "vel": 98
        },
        {
          "pitch": 42,
          "start": 23.5,
          "dur": 0.22,
          "vel": 94
        },
        {
          "pitch": 46,
          "start": 23.5,
          "dur": 0.22,
          "vel": 91
        },
        {
          "pitch": 42,
          "start": 24.5,
          "dur": 0.22,
          "vel": 92
        },
        {
          "pitch": 46,
          "start": 24.5,
          "dur": 0.22,
          "vel": 90
        },
        {
          "pitch": 42,
          "start": 25.5,
          "dur": 0.22,
          "vel": 97
        },
        {
          "pitch": 46,
          "start": 25.5,
          "dur": 0.22,
          "vel": 93
        },
        {
          "pitch": 46,
          "start": 26.26,
          "dur": 0.22,
          "vel": 51
        },
        {
          "pitch": 42,
          "start": 26.5,
          "dur": 0.22,
          "vel": 91
        },
        {
          "pitch": 46,
          "start": 26.5,
          "dur": 0.22,
          "vel": 97
        },
        {
          "pitch": 42,
          "start": 27.5,
          "dur": 0.22,
          "vel": 90
        },
        {
          "pitch": 46,
          "start": 27.5,
          "dur": 0.22,
          "vel": 99
        },
        {
          "pitch": 42,
          "start": 28.5,
          "dur": 0.22,
          "vel": 100
        },
        {
          "pitch": 46,
          "start": 28.5,
          "dur": 0.22,
          "vel": 93
        },
        {
          "pitch": 42,
          "start": 29.5,
          "dur": 0.22,
          "vel": 92
        },
        {
          "pitch": 46,
          "start": 29.5,
          "dur": 0.22,
          "vel": 96
        },
        {
          "pitch": 46,
          "start": 30,
          "dur": 0.22,
          "vel": 48
        },
        {
          "pitch": 42,
          "start": 30.5,
          "dur": 0.22,
          "vel": 91
        },
        {
          "pitch": 46,
          "start": 30.5,
          "dur": 0.22,
          "vel": 91
        }
      ]
    },
    {
      "id": "perc",
      "name": "Percussion",
      "type": "perc",
      "notes": [
        {
          "pitch": 70,
          "start": 0,
          "dur": 0.22,
          "vel": 55
        },
        {
          "pitch": 70,
          "start": 0.26,
          "dur": 0.22,
          "vel": 90
        },
        {
          "pitch": 70,
          "start": 0.5,
          "dur": 0.22,
          "vel": 48
        },
        {
          "pitch": 70,
          "start": 0.76,
          "dur": 0.22,
          "vel": 48
        },
        {
          "pitch": 70,
          "start": 1,
          "dur": 0.22,
          "vel": 99
        },
        {
          "pitch": 70,
          "start": 1.26,
          "dur": 0.22,
          "vel": 54
        },
        {
          "pitch": 70,
          "start": 1.5,
          "dur": 0.22,
          "vel": 47
        },
        {
          "pitch": 37,
          "start": 1.5,
          "dur": 0.22,
          "vel": 96
        },
        {
          "pitch": 70,
          "start": 1.76,
          "dur": 0.22,
          "vel": 90
        },
        {
          "pitch": 70,
          "start": 2,
          "dur": 0.22,
          "vel": 56
        },
        {
          "pitch": 54,
          "start": 2,
          "dur": 0.22,
          "vel": 96
        },
        {
          "pitch": 70,
          "start": 2.26,
          "dur": 0.22,
          "vel": 55
        },
        {
          "pitch": 70,
          "start": 2.5,
          "dur": 0.22,
          "vel": 98
        },
        {
          "pitch": 70,
          "start": 2.76,
          "dur": 0.22,
          "vel": 51
        },
        {
          "pitch": 70,
          "start": 3,
          "dur": 0.22,
          "vel": 52
        },
        {
          "pitch": 70,
          "start": 3.26,
          "dur": 0.22,
          "vel": 100
        },
        {
          "pitch": 70,
          "start": 3.5,
          "dur": 0.22,
          "vel": 53
        },
        {
          "pitch": 37,
          "start": 3.5,
          "dur": 0.22,
          "vel": 93
        },
        {
          "pitch": 70,
          "start": 3.76,
          "dur": 0.22,
          "vel": 53
        },
        {
          "pitch": 70,
          "start": 4,
          "dur": 0.22,
          "vel": 47
        },
        {
          "pitch": 70,
          "start": 4.26,
          "dur": 0.22,
          "vel": 93
        },
        {
          "pitch": 70,
          "start": 4.5,
          "dur": 0.22,
          "vel": 49
        },
        {
          "pitch": 70,
          "start": 4.76,
          "dur": 0.22,
          "vel": 56
        },
        {
          "pitch": 70,
          "start": 5,
          "dur": 0.22,
          "vel": 96
        },
        {
          "pitch": 70,
          "start": 5.26,
          "dur": 0.22,
          "vel": 55
        },
        {
          "pitch": 70,
          "start": 5.5,
          "dur": 0.22,
          "vel": 51
        },
        {
          "pitch": 37,
          "start": 5.5,
          "dur": 0.22,
          "vel": 96
        },
        {
          "pitch": 70,
          "start": 5.76,
          "dur": 0.22,
          "vel": 92
        },
        {
          "pitch": 70,
          "start": 6,
          "dur": 0.22,
          "vel": 47
        },
        {
          "pitch": 54,
          "start": 6,
          "dur": 0.22,
          "vel": 100
        },
        {
          "pitch": 70,
          "start": 6.26,
          "dur": 0.22,
          "vel": 56
        },
        {
          "pitch": 70,
          "start": 6.5,
          "dur": 0.22,
          "vel": 90
        },
        {
          "pitch": 70,
          "start": 6.76,
          "dur": 0.22,
          "vel": 51
        },
        {
          "pitch": 70,
          "start": 7,
          "dur": 0.22,
          "vel": 47
        },
        {
          "pitch": 70,
          "start": 7.26,
          "dur": 0.22,
          "vel": 100
        },
        {
          "pitch": 70,
          "start": 7.5,
          "dur": 0.22,
          "vel": 52
        },
        {
          "pitch": 37,
          "start": 7.5,
          "dur": 0.22,
          "vel": 96
        },
        {
          "pitch": 70,
          "start": 7.76,
          "dur": 0.22,
          "vel": 48
        },
        {
          "pitch": 70,
          "start": 8,
          "dur": 0.22,
          "vel": 51
        },
        {
          "pitch": 70,
          "start": 8.26,
          "dur": 0.22,
          "vel": 101
        },
        {
          "pitch": 70,
          "start": 8.5,
          "dur": 0.22,
          "vel": 57
        },
        {
          "pitch": 70,
          "start": 8.76,
          "dur": 0.22,
          "vel": 53
        },
        {
          "pitch": 70,
          "start": 9,
          "dur": 0.22,
          "vel": 99
        },
        {
          "pitch": 70,
          "start": 9.26,
          "dur": 0.22,
          "vel": 54
        },
        {
          "pitch": 70,
          "start": 9.5,
          "dur": 0.22,
          "vel": 46
        },
        {
          "pitch": 37,
          "start": 9.5,
          "dur": 0.22,
          "vel": 97
        },
        {
          "pitch": 70,
          "start": 9.76,
          "dur": 0.22,
          "vel": 95
        },
        {
          "pitch": 70,
          "start": 10,
          "dur": 0.22,
          "vel": 48
        },
        {
          "pitch": 54,
          "start": 10,
          "dur": 0.22,
          "vel": 100
        },
        {
          "pitch": 70,
          "start": 10.26,
          "dur": 0.22,
          "vel": 52
        },
        {
          "pitch": 70,
          "start": 10.5,
          "dur": 0.22,
          "vel": 101
        },
        {
          "pitch": 70,
          "start": 10.76,
          "dur": 0.22,
          "vel": 54
        },
        {
          "pitch": 70,
          "start": 11,
          "dur": 0.22,
          "vel": 51
        },
        {
          "pitch": 70,
          "start": 11.26,
          "dur": 0.22,
          "vel": 99
        },
        {
          "pitch": 70,
          "start": 11.5,
          "dur": 0.22,
          "vel": 52
        },
        {
          "pitch": 37,
          "start": 11.5,
          "dur": 0.22,
          "vel": 100
        },
        {
          "pitch": 70,
          "start": 11.76,
          "dur": 0.22,
          "vel": 47
        },
        {
          "pitch": 70,
          "start": 12,
          "dur": 0.22,
          "vel": 50
        },
        {
          "pitch": 70,
          "start": 12.26,
          "dur": 0.22,
          "vel": 101
        },
        {
          "pitch": 70,
          "start": 12.5,
          "dur": 0.22,
          "vel": 57
        },
        {
          "pitch": 70,
          "start": 12.76,
          "dur": 0.22,
          "vel": 47
        },
        {
          "pitch": 70,
          "start": 13,
          "dur": 0.22,
          "vel": 98
        },
        {
          "pitch": 70,
          "start": 13.26,
          "dur": 0.22,
          "vel": 54
        },
        {
          "pitch": 70,
          "start": 13.5,
          "dur": 0.22,
          "vel": 56
        }
      ]
    },
    {
      "id": "sub",
      "name": "Sub Bass",
      "type": "sub",
      "notes": [
        {
          "pitch": 33,
          "start": 0,
          "dur": 3.8,
          "vel": 104
        },
        {
          "pitch": 41,
          "start": 4,
          "dur": 3.8,
          "vel": 104
        },
        {
          "pitch": 38,
          "start": 8,
          "dur": 3.8,
          "vel": 104
        },
        {
          "pitch": 40,
          "start": 12,
          "dur": 3.8,
          "vel": 104
        },
        {
          "pitch": 33,
          "start": 16,
          "dur": 3.8,
          "vel": 104
        },
        {
          "pitch": 41,
          "start": 20,
          "dur": 3.8,
          "vel": 104
        },
        {
          "pitch": 38,
          "start": 24,
          "dur": 3.8,
          "vel": 104
        },
        {
          "pitch": 40,
          "start": 28,
          "dur": 3.8,
          "vel": 104
        }
      ]
    },
    {
      "id": "bass",
      "name": "Bass",
      "type": "bass",
      "notes": [
        {
          "pitch": 45,
          "start": 0,
          "dur": 0.42,
          "vel": 104
        },
        {
          "pitch": 45,
          "start": 0.5,
          "dur": 0.42,
          "vel": 88
        },
        {
          "pitch": 45,
          "start": 1,
          "dur": 0.42,
          "vel": 104
        },
        {
          "pitch": 45,
          "start": 1.5,
          "dur": 0.42,
          "vel": 88
        },
        {
          "pitch": 45,
          "start": 2,
          "dur": 0.42,
          "vel": 104
        },
        {
          "pitch": 45,
          "start": 2.5,
          "dur": 0.42,
          "vel": 88
        },
        {
          "pitch": 45,
          "start": 3,
          "dur": 0.42,
          "vel": 104
        },
        {
          "pitch": 52,
          "start": 3.5,
          "dur": 0.42,
          "vel": 88
        },
        {
          "pitch": 53,
          "start": 4,
          "dur": 0.42,
          "vel": 104
        },
        {
          "pitch": 53,
          "start": 4.5,
          "dur": 0.42,
          "vel": 88
        },
        {
          "pitch": 53,
          "start": 5,
          "dur": 0.42,
          "vel": 104
        },
        {
          "pitch": 53,
          "start": 5.5,
          "dur": 0.42,
          "vel": 88
        },
        {
          "pitch": 53,
          "start": 6,
          "dur": 0.42,
          "vel": 104
        },
        {
          "pitch": 53,
          "start": 6.5,
          "dur": 0.42,
          "vel": 88
        },
        {
          "pitch": 60,
          "start": 7,
          "dur": 0.42,
          "vel": 104
        },
        {
          "pitch": 51,
          "start": 7.5,
          "dur": 0.42,
          "vel": 88
        },
        {
          "pitch": 50,
          "start": 8,
          "dur": 0.42,
          "vel": 104
        },
        {
          "pitch": 50,
          "start": 8.5,
          "dur": 0.42,
          "vel": 88
        },
        {
          "pitch": 50,
          "start": 9,
          "dur": 0.42,
          "vel": 104
        },
        {
          "pitch": 50,
          "start": 9.5,
          "dur": 0.42,
          "vel": 88
        },
        {
          "pitch": 50,
          "start": 10,
          "dur": 0.42,
          "vel": 104
        },
        {
          "pitch": 50,
          "start": 10.5,
          "dur": 0.42,
          "vel": 88
        },
        {
          "pitch": 50,
          "start": 11,
          "dur": 0.42,
          "vel": 104
        },
        {
          "pitch": 51,
          "start": 11.5,
          "dur": 0.42,
          "vel": 88
        },
        {
          "pitch": 52,
          "start": 12,
          "dur": 0.42,
          "vel": 104
        },
        {
          "pitch": 52,
          "start": 12.5,
          "dur": 0.42,
          "vel": 88
        },
        {
          "pitch": 52,
          "start": 13,
          "dur": 0.42,
          "vel": 104
        },
        {
          "pitch": 52,
          "start": 13.5,
          "dur": 0.42,
          "vel": 88
        },
        {
          "pitch": 52,
          "start": 14,
          "dur": 0.42,
          "vel": 104
        },
        {
          "pitch": 52,
          "start": 14.5,
          "dur": 0.42,
          "vel": 88
        },
        {
          "pitch": 52,
          "start": 15,
          "dur": 0.42,
          "vel": 104
        },
        {
          "pitch": 46,
          "start": 15.5,
          "dur": 0.42,
          "vel": 88
        },
        {
          "pitch": 45,
          "start": 16,
          "dur": 0.42,
          "vel": 104
        },
        {
          "pitch": 45,
          "start": 16.5,
          "dur": 0.42,
          "vel": 88
        },
        {
          "pitch": 45,
          "start": 17,
          "dur": 0.42,
          "vel": 104
        },
        {
          "pitch": 45,
          "start": 17.5,
          "dur": 0.42,
          "vel": 88
        },
        {
          "pitch": 45,
          "start": 18,
          "dur": 0.42,
          "vel": 104
        },
        {
          "pitch": 45,
          "start": 18.5,
          "dur": 0.42,
          "vel": 88
        },
        {
          "pitch": 52,
          "start": 19,
          "dur": 0.42,
          "vel": 104
        },
        {
          "pitch": 45,
          "start": 19.5,
          "dur": 0.42,
          "vel": 88
        },
        {
          "pitch": 53,
          "start": 20,
          "dur": 0.42,
          "vel": 104
        },
        {
          "pitch": 53,
          "start": 20.5,
          "dur": 0.42,
          "vel": 88
        },
        {
          "pitch": 53,
          "start": 21,
          "dur": 0.42,
          "vel": 104
        },
        {
          "pitch": 53,
          "start": 21.5,
          "dur": 0.42,
          "vel": 88
        },
        {
          "pitch": 53,
          "start": 22,
          "dur": 0.42,
          "vel": 104
        },
        {
          "pitch": 53,
          "start": 22.5,
          "dur": 0.42,
          "vel": 88
        },
        {
          "pitch": 60,
          "start": 23,
          "dur": 0.42,
          "vel": 104
        },
        {
          "pitch": 51,
          "start": 23.5,
          "dur": 0.42,
          "vel": 88
        },
        {
          "pitch": 50,
          "start": 24,
          "dur": 0.42,
          "vel": 104
        },
        {
          "pitch": 50,
          "start": 24.5,
          "dur": 0.42,
          "vel": 88
        },
        {
          "pitch": 50,
          "start": 25,
          "dur": 0.42,
          "vel": 104
        },
        {
          "pitch": 50,
          "start": 25.5,
          "dur": 0.42,
          "vel": 88
        },
        {
          "pitch": 50,
          "start": 26,
          "dur": 0.42,
          "vel": 104
        },
        {
          "pitch": 50,
          "start": 26.5,
          "dur": 0.42,
          "vel": 88
        },
        {
          "pitch": 50,
          "start": 27,
          "dur": 0.42,
          "vel": 104
        },
        {
          "pitch": 50,
          "start": 27.5,
          "dur": 0.42,
          "vel": 88
        },
        {
          "pitch": 52,
          "start": 28,
          "dur": 0.42,
          "vel": 104
        },
        {
          "pitch": 52,
          "start": 28.5,
          "dur": 0.42,
          "vel": 88
        },
        {
          "pitch": 52,
          "start": 29,
          "dur": 0.42,
          "vel": 104
        },
        {
          "pitch": 52,
          "start": 29.5,
          "dur": 0.42,
          "vel": 88
        },
        {
          "pitch": 52,
          "start": 30,
          "dur": 0.42,
          "vel": 104
        },
        {
          "pitch": 52,
          "start": 30.5,
          "dur": 0.42,
          "vel": 88
        },
        {
          "pitch": 59,
          "start": 31,
          "dur": 0.42,
          "vel": 104
        },
        {
          "pitch": 52,
          "start": 31.5,
          "dur": 0.42,
          "vel": 88
        }
      ]
    },
    {
      "id": "chords",
      "name": "Chords",
      "type": "chords",
      "notes": [
        {
          "pitch": null,
          "start": 0,
          "dur": 1.5,
          "vel": 59
        },
        {
          "pitch": null,
          "start": 0,
          "dur": 1.5,
          "vel": 59
        },
        {
          "pitch": null,
          "start": 0,
          "dur": 1.5,
          "vel": 59
        },
        {
          "pitch": null,
          "start": 2.5,
          "dur": 0.75,
          "vel": 77
        },
        {
          "pitch": null,
          "start": 2.5,
          "dur": 0.75,
          "vel": 77
        },
        {
          "pitch": null,
          "start": 2.5,
          "dur": 0.75,
          "vel": 77
        },
        {
          "pitch": null,
          "start": 3.5,
          "dur": 0.35,
          "vel": 71
        },
        {
          "pitch": null,
          "start": 3.5,
          "dur": 0.35,
          "vel": 71
        },
        {
          "pitch": null,
          "start": 3.5,
          "dur": 0.35,
          "vel": 71
        },
        {
          "pitch": null,
          "start": 4,
          "dur": 1.5,
          "vel": 60
        },
        {
          "pitch": null,
          "start": 6.5,
          "dur": 0.75,
          "vel": 82
        },
        {
          "pitch": null,
          "start": 7.5,
          "dur": 0.35,
          "vel": 67
        },
        {
          "pitch": null,
          "start": 8,
          "dur": 1.5,
          "vel": 60
        },
        {
          "pitch": null,
          "start": 10.5,
          "dur": 0.75,
          "vel": 82
        },
        {
          "pitch": null,
          "start": 11.5,
          "dur": 0.35,
          "vel": 72
        },
        {
          "pitch": null,
          "start": 12,
          "dur": 1.5,
          "vel": 58
        },
        {
          "pitch": null,
          "start": 14.5,
          "dur": 0.75,
          "vel": 78
        },
        {
          "pitch": null,
          "start": 15.5,
          "dur": 0.35,
          "vel": 67
        },
        {
          "pitch": null,
          "start": 16,
          "dur": 1.5,
          "vel": 62
        },
        {
          "pitch": null,
          "start": 18.5,
          "dur": 0.75,
          "vel": 81
        },
        {
          "pitch": null,
          "start": 19.5,
          "dur": 0.35,
          "vel": 65
        },
        {
          "pitch": null,
          "start": 20,
          "dur": 1.5,
          "vel": 60
        },
        {
          "pitch": null,
          "start": 22.5,
          "dur": 0.75,
          "vel": 78
        },
        {
          "pitch": null,
          "start": 23.5,
          "dur": 0.35,
          "vel": 67
        },
        {
          "pitch": null,
          "start": 24,
          "dur": 1.5,
          "vel": 60
        },
        {
          "pitch": null,
          "start": 26.5,
          "dur": 0.75,
          "vel": 81
        },
        {
          "pitch": null,
          "start": 27.5,
          "dur": 0.35,
          "vel": 70
        },
        {
          "pitch": null,
          "start": 28,
          "dur": 1.5,
          "vel": 60
        },
        {
          "pitch": null,
          "start": 30.5,
          "dur": 0.75,
          "vel": 76
        },
        {
          "pitch": null,
          "start": 31.5,
          "dur": 0.35,
          "vel": 70
        }
      ]
    },
    {
      "id": "pads",
      "name": "Pads",
      "type": "pads",
      "notes": [
        {
          "pitch": null,
          "start": 0,
          "dur": 3.9,
          "vel": 62
        },
        {
          "pitch": null,
          "start": 0,
          "dur": 3.9,
          "vel": 62
        },
        {
          "pitch": null,
          "start": 0,
          "dur": 3.9,
          "vel": 62
        },
        {
          "pitch": null,
          "start": 0,
          "dur": 3.9,
          "vel": 62
        },
        {
          "pitch": null,
          "start": 4,
          "dur": 3.9,
          "vel": 62
        },
        {
          "pitch": null,
          "start": 4,
          "dur": 3.9,
          "vel": 62
        },
        {
          "pitch": null,
          "start": 8,
          "dur": 3.9,
          "vel": 62
        },
        {
          "pitch": null,
          "start": 8,
          "dur": 3.9,
          "vel": 62
        },
        {
          "pitch": null,
          "start": 12,
          "dur": 3.9,
          "vel": 62
        },
        {
          "pitch": null,
          "start": 12,
          "dur": 3.9,
          "vel": 62
        },
        {
          "pitch": null,
          "start": 16,
          "dur": 3.9,
          "vel": 62
        },
        {
          "pitch": null,
          "start": 16,
          "dur": 3.9,
          "vel": 62
        },
        {
          "pitch": null,
          "start": 20,
          "dur": 3.9,
          "vel": 62
        },
        {
          "pitch": null,
          "start": 20,
          "dur": 3.9,
          "vel": 62
        },
        {
          "pitch": null,
          "start": 24,
          "dur": 3.9,
          "vel": 62
        },
        {
          "pitch": null,
          "start": 24,
          "dur": 3.9,
          "vel": 62
        },
        {
          "pitch": null,
          "start": 28,
          "dur": 3.9,
          "vel": 62
        },
        {
          "pitch": null,
          "start": 28,
          "dur": 3.9,
          "vel": 62
        }
      ]
    },
    {
      "id": "arp",
      "name": "Arp",
      "type": "arp",
      "notes": [
        {
          "pitch": null,
          "start": 0,
          "dur": 0.2,
          "vel": 92
        },
        {
          "pitch": null,
          "start": 0.25,
          "dur": 0.2,
          "vel": 72
        },
        {
          "pitch": null,
          "start": 0.5,
          "dur": 0.2,
          "vel": 72
        },
        {
          "pitch": null,
          "start": 0.75,
          "dur": 0.2,
          "vel": 72
        },
        {
          "pitch": null,
          "start": 1,
          "dur": 0.2,
          "vel": 92
        },
        {
          "pitch": null,
          "start": 1.25,
          "dur": 0.2,
          "vel": 72
        },
        {
          "pitch": null,
          "start": 1.5,
          "dur": 0.2,
          "vel": 72
        },
        {
          "pitch": null,
          "start": 1.75,
          "dur": 0.2,
          "vel": 72
        },
        {
          "pitch": null,
          "start": 2,
          "dur": 0.2,
          "vel": 92
        },
        {
          "pitch": null,
          "start": 2.25,
          "dur": 0.2,
          "vel": 72
        },
        {
          "pitch": null,
          "start": 2.5,
          "dur": 0.2,
          "vel": 72
        },
        {
          "pitch": null,
          "start": 2.75,
          "dur": 0.2,
          "vel": 72
        },
        {
          "pitch": null,
          "start": 3,
          "dur": 0.2,
          "vel": 92
        },
        {
          "pitch": null,
          "start": 3.25,
          "dur": 0.2,
          "vel": 72
        },
        {
          "pitch": null,
          "start": 3.5,
          "dur": 0.2,
          "vel": 72
        },
        {
          "pitch": null,
          "start": 3.75,
          "dur": 0.2,
          "vel": 72
        },
        {
          "pitch": null,
          "start": 4,
          "dur": 0.2,
          "vel": 92
        },
        {
          "pitch": null,
          "start": 4.25,
          "dur": 0.2,
          "vel": 72
        },
        {
          "pitch": null,
          "start": 4.5,
          "dur": 0.2,
          "vel": 72
        },
        {
          "pitch": null,
          "start": 4.75,
          "dur": 0.2,
          "vel": 72
        },
        {
          "pitch": null,
          "start": 5,
          "dur": 0.2,
          "vel": 92
        },
        {
          "pitch": null,
          "start": 5.25,
          "dur": 0.2,
          "vel": 72
        },
        {
          "pitch": null,
          "start": 5.5,
          "dur": 0.2,
          "vel": 72
        },
        {
          "pitch": null,
          "start": 5.75,
          "dur": 0.2,
          "vel": 72
        },
        {
          "pitch": null,
          "start": 6,
          "dur": 0.2,
          "vel": 92
        },
        {
          "pitch": null,
          "start": 6.25,
          "dur": 0.2,
          "vel": 72
        },
        {
          "pitch": null,
          "start": 6.5,
          "dur": 0.2,
          "vel": 72
        },
        {
          "pitch": null,
          "start": 6.75,
          "dur": 0.2,
          "vel": 72
        },
        {
          "pitch": null,
          "start": 7,
          "dur": 0.2,
          "vel": 92
        },
        {
          "pitch": null,
          "start": 7.25,
          "dur": 0.2,
          "vel": 72
        },
        {
          "pitch": null,
          "start": 7.5,
          "dur": 0.2,
          "vel": 72
        },
        {
          "pitch": null,
          "start": 7.75,
          "dur": 0.2,
          "vel": 72
        },
        {
          "pitch": null,
          "start": 8,
          "dur": 0.2,
          "vel": 92
        },
        {
          "pitch": null,
          "start": 8.25,
          "dur": 0.2,
          "vel": 72
        },
        {
          "pitch": null,
          "start": 8.5,
          "dur": 0.2,
          "vel": 72
        },
        {
          "pitch": null,
          "start": 8.75,
          "dur": 0.2,
          "vel": 72
        },
        {
          "pitch": null,
          "start": 9,
          "dur": 0.2,
          "vel": 92
        },
        {
          "pitch": null,
          "start": 9.25,
          "dur": 0.2,
          "vel": 72
        },
        {
          "pitch": null,
          "start": 9.5,
          "dur": 0.2,
          "vel": 72
        },
        {
          "pitch": null,
          "start": 9.75,
          "dur": 0.2,
          "vel": 72
        },
        {
          "pitch": null,
          "start": 10,
          "dur": 0.2,
          "vel": 92
        },
        {
          "pitch": null,
          "start": 10.25,
          "dur": 0.2,
          "vel": 72
        },
        {
          "pitch": null,
          "start": 10.5,
          "dur": 0.2,
          "vel": 72
        },
        {
          "pitch": null,
          "start": 10.75,
          "dur": 0.2,
          "vel": 72
        },
        {
          "pitch": null,
          "start": 11,
          "dur": 0.2,
          "vel": 92
        },
        {
          "pitch": null,
          "start": 11.25,
          "dur": 0.2,
          "vel": 72
        },
        {
          "pitch": null,
          "start": 11.5,
          "dur": 0.2,
          "vel": 72
        },
        {
          "pitch": null,
          "start": 11.75,
          "dur": 0.2,
          "vel": 72
        },
        {
          "pitch": null,
          "start": 12,
          "dur": 0.2,
          "vel": 92
        },
        {
          "pitch": null,
          "start": 12.25,
          "dur": 0.2,
          "vel": 72
        },
        {
          "pitch": null,
          "start": 12.5,
          "dur": 0.2,
          "vel": 72
        },
        {
          "pitch": null,
          "start": 12.75,
          "dur": 0.2,
          "vel": 72
        },
        {
          "pitch": null,
          "start": 13,
          "dur": 0.2,
          "vel": 92
        },
        {
          "pitch": null,
          "start": 13.25,
          "dur": 0.2,
          "vel": 72
        },
        {
          "pitch": null,
          "start": 13.5,
          "dur": 0.2,
          "vel": 72
        },
        {
          "pitch": null,
          "start": 13.75,
          "dur": 0.2,
          "vel": 72
        },
        {
          "pitch": null,
          "start": 14,
          "dur": 0.2,
          "vel": 92
        },
        {
          "pitch": null,
          "start": 14.25,
          "dur": 0.2,
          "vel": 72
        },
        {
          "pitch": null,
          "start": 14.5,
          "dur": 0.2,
          "vel": 72
        },
        {
          "pitch": null,
          "start": 14.75,
          "dur": 0.2,
          "vel": 72
        },
        {
          "pitch": null,
          "start": 15,
          "dur": 0.2,
          "vel": 92
        },
        {
          "pitch": null,
          "start": 15.25,
          "dur": 0.2,
          "vel": 72
        },
        {
          "pitch": null,
          "start": 15.5,
          "dur": 0.2,
          "vel": 72
        },
        {
          "pitch": null,
          "start": 15.75,
          "dur": 0.2,
          "vel": 72
        }
      ]
    },
    {
      "id": "lead",
      "name": "Lead",
      "type": "lead",
      "notes": [
        {
          "pitch": 108,
          "start": 0,
          "dur": 0.92,
          "vel": 99
        },
        {
          "pitch": 112,
          "start": 1.25,
          "dur": 0.46,
          "vel": 87
        },
        {
          "pitch": 112,
          "start": 2,
          "dur": 0.6900000000000001,
          "vel": 96
        },
        {
          "pitch": 112,
          "start": 3,
          "dur": 0.6900000000000001,
          "vel": 101
        },
        {
          "pitch": 113,
          "start": 4,
          "dur": 0.6900000000000001,
          "vel": 99
        },
        {
          "pitch": 117,
          "start": 5,
          "dur": 0.46,
          "vel": 100
        },
        {
          "pitch": 120,
          "start": 5.75,
          "dur": 0.23,
          "vel": 83
        },
        {
          "pitch": 117,
          "start": 6.25,
          "dur": 0.6900000000000001,
          "vel": 83
        },
        {
          "pitch": 113,
          "start": 7.25,
          "dur": 0.46,
          "vel": 83
        },
        {
          "pitch": 113,
          "start": 8,
          "dur": 0.92,
          "vel": 100
        },
        {
          "pitch": 117,
          "start": 9.25,
          "dur": 0.46,
          "vel": 80
        },
        {
          "pitch": 117,
          "start": 10,
          "dur": 0.6900000000000001,
          "vel": 104
        },
        {
          "pitch": 117,
          "start": 11,
          "dur": 0.6900000000000001,
          "vel": 103
        },
        {
          "pitch": 110,
          "start": 12,
          "dur": 0.6900000000000001,
          "vel": 100
        },
        {
          "pitch": 113,
          "start": 12.75,
          "dur": 0.18,
          "vel": 58
        },
        {
          "pitch": 113,
          "start": 13,
          "dur": 0.46,
          "vel": 100
        },
        {
          "pitch": 117,
          "start": 13.5,
          "dur": 0.18,
          "vel": 58
        },
        {
          "pitch": 117,
          "start": 13.75,
          "dur": 0.23,
          "vel": 82
        },
        {
          "pitch": 112,
          "start": 14.25,
          "dur": 0.6900000000000001,
          "vel": 77
        },
        {
          "pitch": 110,
          "start": 15.25,
          "dur": 0.46,
          "vel": 79
        },
        {
          "pitch": 108,
          "start": 16,
          "dur": 0.92,
          "vel": 95
        },
        {
          "pitch": 112,
          "start": 17.25,
          "dur": 0.46,
          "vel": 86
        },
        {
          "pitch": 112,
          "start": 18,
          "dur": 0.6900000000000001,
          "vel": 102
        },
        {
          "pitch": 112,
          "start": 19,
          "dur": 0.6900000000000001,
          "vel": 96
        },
        {
          "pitch": 113,
          "start": 20,
          "dur": 0.6900000000000001,
          "vel": 101
        },
        {
          "pitch": 117,
          "start": 21,
          "dur": 0.46,
          "vel": 96
        },
        {
          "pitch": 120,
          "start": 21.75,
          "dur": 0.23,
          "vel": 83
        },
        {
          "pitch": 117,
          "start": 22.25,
          "dur": 0.6900000000000001,
          "vel": 84
        },
        {
          "pitch": 113,
          "start": 23.25,
          "dur": 0.46,
          "vel": 83
        },
        {
          "pitch": 117,
          "start": 24,
          "dur": 0.92,
          "vel": 96
        },
        {
          "pitch": 122,
          "start": 25.25,
          "dur": 0.46,
          "vel": 80
        },
        {
          "pitch": 134,
          "start": 26,
          "dur": 0.6900000000000001,
          "vel": 95
        },
        {
          "pitch": 122,
          "start": 27,
          "dur": 0.6900000000000001,
          "vel": 101
        },
        {
          "pitch": 112,
          "start": 28,
          "dur": 0.6900000000000001,
          "vel": 104
        },
        {
          "pitch": 117,
          "start": 29,
          "dur": 0.46,
          "vel": 104
        },
        {
          "pitch": 120,
          "start": 29.5,
          "dur": 0.18,
          "vel": 58
        },
        {
          "pitch": 120,
          "start": 29.75,
          "dur": 0.23,
          "vel": 77
        },
        {
          "pitch": 119,
          "start": 30.25,
          "dur": 0.6900000000000001,
          "vel": 83
        },
        {
          "pitch": 112,
          "start": 31.25,
          "dur": 1.25,
          "vel": 87
        }
      ]
    },
    {
      "id": "guide",
      "name": "Piano Hook Guide",
      "type": "guide",
      "notes": [
        {
          "pitch": 84,
          "start": 0,
          "dur": 0.92,
          "vel": 81
        },
        {
          "pitch": 76,
          "start": 1.25,
          "dur": 0.46,
          "vel": 69
        },
        {
          "pitch": 76,
          "start": 2,
          "dur": 0.6900000000000001,
          "vel": 78
        },
        {
          "pitch": 76,
          "start": 3,
          "dur": 0.6900000000000001,
          "vel": 83
        },
        {
          "pitch": 77,
          "start": 4,
          "dur": 0.6900000000000001,
          "vel": 81
        },
        {
          "pitch": 81,
          "start": 5,
          "dur": 0.46,
          "vel": 82
        },
        {
          "pitch": 81,
          "start": 6.25,
          "dur": 0.6900000000000001,
          "vel": 65
        },
        {
          "pitch": 77,
          "start": 7.25,
          "dur": 0.46,
          "vel": 65
        },
        {
          "pitch": 77,
          "start": 8,
          "dur": 0.92,
          "vel": 82
        },
        {
          "pitch": 81,
          "start": 9.25,
          "dur": 0.46,
          "vel": 62
        },
        {
          "pitch": 81,
          "start": 10,
          "dur": 0.6900000000000001,
          "vel": 86
        },
        {
          "pitch": 81,
          "start": 11,
          "dur": 0.6900000000000001,
          "vel": 85
        },
        {
          "pitch": 74,
          "start": 12,
          "dur": 0.6900000000000001,
          "vel": 82
        },
        {
          "pitch": 77,
          "start": 13,
          "dur": 0.46,
          "vel": 82
        },
        {
          "pitch": 76,
          "start": 14.25,
          "dur": 0.6900000000000001,
          "vel": 59
        },
        {
          "pitch": 74,
          "start": 15.25,
          "dur": 0.46,
          "vel": 61
        },
        {
          "pitch": 84,
          "start": 16,
          "dur": 0.92,
          "vel": 77
        },
        {
          "pitch": 76,
          "start": 17.25,
          "dur": 0.46,
          "vel": 68
        },
        {
          "pitch": 76,
          "start": 18,
          "dur": 0.6900000000000001,
          "vel": 84
        },
        {
          "pitch": 76,
          "start": 19,
          "dur": 0.6900000000000001,
          "vel": 78
        },
        {
          "pitch": 77,
          "start": 20,
          "dur": 0.6900000000000001,
          "vel": 83
        },
        {
          "pitch": 81,
          "start": 21,
          "dur": 0.46,
          "vel": 78
        },
        {
          "pitch": 81,
          "start": 22.25,
          "dur": 0.6900000000000001,
          "vel": 66
        },
        {
          "pitch": 77,
          "start": 23.25,
          "dur": 0.46,
          "vel": 65
        },
        {
          "pitch": 81,
          "start": 24,
          "dur": 0.92,
          "vel": 78
        },
        {
          "pitch": 74,
          "start": 25.25,
          "dur": 0.46,
          "vel": 62
        },
        {
          "pitch": 74,
          "start": 26,
          "dur": 0.6900000000000001,
          "vel": 77
        },
        {
          "pitch": 74,
          "start": 27,
          "dur": 0.6900000000000001,
          "vel": 83
        },
        {
          "pitch": 76,
          "start": 28,
          "dur": 0.6900000000000001,
          "vel": 86
        },
        {
          "pitch": 81,
          "start": 29,
          "dur": 0.46,
          "vel": 86
        },
        {
          "pitch": 83,
          "start": 30.25,
          "dur": 0.6900000000000001,
          "vel": 65
        },
        {
          "pitch": 76,
          "start": 31.25,
          "dur": 1.25,
          "vel": 69
        }
      ]
    }
  ]
}