{
  "genre": "tech_house",
  "key": "G",
  "scale": "minor",
  "tempo": 126,
  "bars": 8,
  "seed": 240716,
  "structure": "loop",
  "progression": [
    {
      "d": 0,
      "q": "7"
    },
    {
      "d": 0,
      "q": "7"
    },
    {
      "d": 3,
      "q": "7"
    },
    {
      "d": 4,
      "q": "7"
    },
    {
      "d": 0,
      "q": "7"
    },
    {
      "d": 0,
      "q": "7"
    },
    {
      "d": 5,
      "q": "7"
    },
    {
      "d": 4,
      "q": "7"
    }
  ],
  "sections": [
    {
      "name": "loop",
      "start": 0,
      "bars": 8
    }
  ],
  "tracks": [
    {
      "id": "kick",
      "name": "Kick",
      "type": "kick",
      "notes": [
        {
          "pitch": 36,
          "start": 0,
          "dur": 0.22,
          "vel": 101
        },
        {
          "pitch": 36,
          "start": 1,
          "dur": 0.22,
          "vel": 101
        },
        {
          "pitch": 36,
          "start": 2,
          "dur": 0.22,
          "vel": 90
        },
        {
          "pitch": 36,
          "start": 3,
          "dur": 0.22,
          "vel": 101
        },
        {
          "pitch": 36,
          "start": 4,
          "dur": 0.22,
          "vel": 91
        },
        {
          "pitch": 36,
          "start": 5,
          "dur": 0.22,
          "vel": 101
        },
        {
          "pitch": 36,
          "start": 6,
          "dur": 0.22,
          "vel": 97
        },
        {
          "pitch": 36,
          "start": 7,
          "dur": 0.22,
          "vel": 101
        },
        {
          "pitch": 36,
          "start": 8,
          "dur": 0.22,
          "vel": 92
        },
        {
          "pitch": 36,
          "start": 9,
          "dur": 0.22,
          "vel": 92
        },
        {
          "pitch": 36,
          "start": 10,
          "dur": 0.22,
          "vel": 96
        },
        {
          "pitch": 36,
          "start": 11,
          "dur": 0.22,
          "vel": 94
        },
        {
          "pitch": 36,
          "start": 12,
          "dur": 0.22,
          "vel": 95
        },
        {
          "pitch": 36,
          "start": 13,
          "dur": 0.22,
          "vel": 90
        },
        {
          "pitch": 36,
          "start": 14,
          "dur": 0.22,
          "vel": 91
        },
        {
          "pitch": 36,
          "start": 15,
          "dur": 0.22,
          "vel": 95
        },
        {
          "pitch": 36,
          "start": 16,
          "dur": 0.22,
          "vel": 93
        },
        {
          "pitch": 36,
          "start": 17,
          "dur": 0.22,
          "vel": 91
        },
        {
          "pitch": 36,
          "start": 18,
          "dur": 0.22,
          "vel": 96
        },
        {
          "pitch": 36,
          "start": 19,
          "dur": 0.22,
          "vel": 92
        },
        {
          "pitch": 36,
          "start": 20,
          "dur": 0.22,
          "vel": 90
        },
        {
          "pitch": 36,
          "start": 21,
          "dur": 0.22,
          "vel": 97
        },
        {
          "pitch": 36,
          "start": 22,
          "dur": 0.22,
          "vel": 94
        },
        {
          "pitch": 36,
          "start": 23,
          "dur": 0.22,
          "vel": 98
        },
        {
          "pitch": 36,
          "start": 24,
          "dur": 0.22,
          "vel": 97
        },
        {
          "pitch": 36,
          "start": 25,
          "dur": 0.22,
          "vel": 96
        },
        {
          "pitch": 36,
          "start": 26,
          "dur": 0.22,
          "vel": 94
        },
        {
          "pitch": 36,
          "start": 27,
          "dur": 0.22,
          "vel": 95
        },
        {
          "pitch": 36,
          "start": 28,
          "dur": 0.22,
          "vel": 91
        },
        {
          "pitch": 36,
          "start": 29,
          "dur": 0.22,
          "vel": 92
        },
        {
          "pitch": 36,
          "start": 30,
          "dur": 0.22,
          "vel": 97
        },
        {
          "pitch": 36,
          "start": 31,
          "dur": 0.22,
          "vel": 92
        }
      ]
    },
    {
      "id": "snare",
      "name": "Snare/Clap",
      "type": "snare",
      "notes": [
        {
          "pitch": 39,
          "start": 1,
          "dur": 0.22,
          "vel": 90
        },
        {
          "pitch": 39,
          "start": 3,
          "dur": 0.22,
          "vel": 101
        },
        {
          "pitch": 39,
          "start": 5,
          "dur": 0.22,
          "vel": 99
        },
        {
          "pitch": 39,
          "start": 9,
          "dur": 0.22,
          "vel": 95
        },
        {
          "pitch": 39,
          "start": 11,
          "dur": 0.22,
          "vel": 95
        },
        {
          "pitch": 39,
          "start": 13,
          "dur": 0.22,
          "vel": 101
        },
        {
          "pitch": 39,
          "start": 15,
          "dur": 0.22,
          "vel": 92
        },
        {
          "pitch": 39,
          "start": 17,
          "dur": 0.22,
          "vel": 90
        },
        {
          "pitch": 39,
          "start": 17.775,
          "dur": 0.22,
          "vel": 51
        },
        {
          "pitch": 39,
          "start": 19,
          "dur": 0.22,
          "vel": 96
        },
        {
          "pitch": 39,
          "start": 21,
          "dur": 0.22,
          "vel": 99
        },
        {
          "pitch": 39,
          "start": 22.775,
          "dur": 0.22,
          "vel": 48
        },
        {
          "pitch": 39,
          "start": 23,
          "dur": 0.22,
          "vel": 93
        },
        {
          "pitch": 39,
          "start": 25,
          "dur": 0.22,
          "vel": 100
        },
        {
          "pitch": 39,
          "start": 27,
          "dur": 0.22,
          "vel": 94
        },
        {
          "pitch": 39,
          "start": 29,
          "dur": 0.22,
          "vel": 90
        },
        {
          "pitch": 39,
          "start": 31,
          "dur": 0.22,
          "vel": 98
        }
      ]
    },
    {
      "id": "hats",
      "name": "Hats",
      "type": "hats",
      "notes": [
        {
          "pitch": 42,
          "start": 0,
          "dur": 0.22,
          "vel": 94
        },
        {
          "pitch": 42,
          "start": 0.275,
          "dur": 0.22,
          "vel": 48
        },
        {
          "pitch": 42,
          "start": 0.5,
          "dur": 0.22,
          "vel": 93
        },
        {
          "pitch": 46,
          "start": 0.5,
          "dur": 0.22,
          "vel": 91
        },
        {
          "pitch": 42,
          "start": 0.775,
          "dur": 0.22,
          "vel": 55
        },
        {
          "pitch": 42,
          "start": 1,
          "dur": 0.22,
          "vel": 99
        },
        {
          "pitch": 42,
          "start": 1.275,
          "dur": 0.22,
          "vel": 49
        },
        {
          "pitch": 42,
          "start": 1.5,
          "dur": 0.22,
          "vel": 98
        },
        {
          "pitch": 46,
          "start": 1.5,
          "dur": 0.22,
          "vel": 100
        },
        {
          "pitch": 42,
          "start": 1.775,
          "dur": 0.22,
          "vel": 48
        },
        {
          "pitch": 42,
          "start": 2,
          "dur": 0.22,
          "vel": 96
        },
        {
          "pitch": 42,
          "start": 2.275,
          "dur": 0.22,
          "vel": 51
        },
        {
          "pitch": 42,
          "start": 2.5,
          "dur": 0.22,
          "vel": 93
        },
        {
          "pitch": 46,
          "start": 2.5,
          "dur": 0.22,
          "vel": 97
        },
        {
          "pitch": 42,
          "start": 2.775,
          "dur": 0.22,
          "vel": 57
        },
        {
          "pitch": 42,
          "start": 3,
          "dur": 0.22,
          "vel": 100
        },
        {
          "pitch": 42,
          "start": 3.275,
          "dur": 0.22,
          "vel": 57
        },
        {
          "pitch": 42,
          "start": 3.5,
          "dur": 0.22,
          "vel": 93
        },
        {
          "pitch": 46,
          "start": 3.5,
          "dur": 0.22,
          "vel": 98
        },
        {
          "pitch": 42,
          "start": 3.775,
          "dur": 0.22,
          "vel": 53
        },
        {
          "pitch": 42,
          "start": 4,
          "dur": 0.22,
          "vel": 93
        },
        {
          "pitch": 42,
          "start": 4.275,
          "dur": 0.22,
          "vel": 56
        },
        {
          "pitch": 42,
          "start": 4.5,
          "dur": 0.22,
          "vel": 92
        },
        {
          "pitch": 46,
          "start": 4.5,
          "dur": 0.22,
          "vel": 98
        },
        {
          "pitch": 42,
          "start": 4.775,
          "dur": 0.22,
          "vel": 46
        },
        {
          "pitch": 42,
          "start": 5,
          "dur": 0.22,
          "vel": 101
        },
        {
          "pitch": 42,
          "start": 5.275,
          "dur": 0.22,
          "vel": 47
        },
        {
          "pitch": 42,
          "start": 5.5,
          "dur": 0.22,
          "vel": 97
        },
        {
          "pitch": 46,
          "start": 5.5,
          "dur": 0.22,
          "vel": 95
        },
        {
          "pitch": 42,
          "start": 5.775,
          "dur": 0.22,
          "vel": 57
        },
        {
          "pitch": 42,
          "start": 6,
          "dur": 0.22,
          "vel": 99
        },
        {
          "pitch": 42,
          "start": 6.275,
          "dur": 0.22,
          "vel": 51
        },
        {
          "pitch": 42,
          "start": 6.5,
          "dur": 0.22,
          "vel": 93
        },
        {
          "pitch": 46,
          "start": 6.5,
          "dur": 0.22,
          "vel": 95
        },
        {
          "pitch": 42,
          "start": 6.775,
          "dur": 0.22,
          "vel": 50
        },
        {
          "pitch": 42,
          "start": 7,
          "dur": 0.22,
          "vel": 99
        },
        {
          "pitch": 42,
          "start": 7.275,
          "dur": 0.22,
          "vel": 48
        },
        {
          "pitch": 42,
          "start": 7.5,
          "dur": 0.22,
          "vel": 97
        },
        {
          "pitch": 46,
          "start": 7.5,
          "dur": 0.22,
          "vel": 101
        },
        {
          "pitch": 42,
          "start": 7.775,
          "dur": 0.22,
          "vel": 54
        },
        {
          "pitch": 42,
          "start": 8,
          "dur": 0.22,
          "vel": 99
        },
        {
          "pitch": 42,
          "start": 8.275,
          "dur": 0.22,
          "vel": 52
        },
        {
          "pitch": 42,
          "start": 8.5,
          "dur": 0.22,
          "vel": 92
        },
        {
          "pitch": 46,
          "start": 8.5,
          "dur": 0.22,
          "vel": 99
        },
        {
          "pitch": 42,
          "start": 8.775,
          "dur": 0.22,
          "vel": 48
        },
        {
          "pitch": 42,
          "start": 9,
          "dur": 0.22,
          "vel": 94
        },
        {
          "pitch": 42,
          "start": 9.275,
          "dur": 0.22,
          "vel": 48
        },
        {
          "pitch": 46,
          "start": 9.5,
          "dur": 0.22,
          "vel": 92
        },
        {
          "pitch": 42,
          "start": 9.775,
          "dur": 0.22,
          "vel": 53
        },
        {
          "pitch": 42,
          "start": 10,
          "dur": 0.22,
          "vel": 93
        },
        {
          "pitch": 42,
          "start": 10.275,
          "dur": 0.22,
          "vel": 47
        },
        {
          "pitch": 42,
          "start": 10.5,
          "dur": 0.22,
          "vel": 96
        },
        {
          "pitch": 46,
          "start": 10.5,
          "dur": 0.22,
          "vel": 96
        },
        {
          "pitch": 42,
          "start": 10.775,
          "dur": 0.22,
          "vel": 57
        },
        {
          "pitch": 46,
          "start": 10.775,
          "dur": 0.22,
          "vel": 46
        },
        {
          "pitch": 42,
          "start": 11,
          "dur": 0.22,
          "vel": 98
        },
        {
          "pitch": 42,
          "start": 11.275,
          "dur": 0.22,
          "vel": 53
        },
        {
          "pitch": 42,
          "start": 11.5,
          "dur": 0.22,
          "vel": 99
        },
        {
          "pitch": 46,
          "start": 11.5,
          "dur": 0.22,
          "vel": 100
        },
        {
          "pitch": 42,
          "start": 11.775,
          "dur": 0.22,
          "vel": 54
        },
        {
          "pitch": 42,
          "start": 12,
          "dur": 0.22,
          "vel": 92
        },
        {
          "pitch": 42,
          "start": 12.275,
          "dur": 0.22,
          "vel": 52
        },
        {
          "pitch": 42,
          "start": 12.5,
          "dur": 0.22,
          "vel": 101
        },
        {
          "pitch": 46,
          "start": 12.5,
          "dur": 0.22,
          "vel": 97
        }
      ]
    },
    {
      "id": "perc",
      "name": "Percussion",
      "type": "perc",
      "notes": [
        {
          "pitch": 70,
          "start": 0,
          "dur": 0.22,
          "vel": 54
        },
        {
          "pitch": 70,
          "start": 0.275,
          "dur": 0.22,
          "vel": 99
        },
        {
          "pitch": 70,
          "start": 0.5,
          "dur": 0.22,
          "vel": 53
        },
        {
          "pitch": 37,
          "start": 0.5,
          "dur": 0.22,
          "vel": 93
        },
        {
          "pitch": 63,
          "start": 0.775,
          "dur": 0.22,
          "vel": 96
        },
        {
          "pitch": 70,
          "start": 1,
          "dur": 0.22,
          "vel": 101
        },
        {
          "pitch": 70,
          "start": 1.275,
          "dur": 0.22,
          "vel": 57
        },
        {
          "pitch": 70,
          "start": 1.5,
          "dur": 0.22,
          "vel": 50
        },
        {
          "pitch": 70,
          "start": 1.775,
          "dur": 0.22,
          "vel": 93
        },
        {
          "pitch": 70,
          "start": 2,
          "dur": 0.22,
          "vel": 46
        },
        {
          "pitch": 63,
          "start": 2,
          "dur": 0.22,
          "vel": 101
        },
        {
          "pitch": 70,
          "start": 2.275,
          "dur": 0.22,
          "vel": 57
        },
        {
          "pitch": 70,
          "start": 2.5,
          "dur": 0.22,
          "vel": 93
        },
        {
          "pitch": 37,
          "start": 2.5,
          "dur": 0.22,
          "vel": 99
        },
        {
          "pitch": 70,
          "start": 2.775,
          "dur": 0.22,
          "vel": 56
        },
        {
          "pitch": 70,
          "start": 3,
          "dur": 0.22,
          "vel": 53
        },
        {
          "pitch": 63,
          "start": 3,
          "dur": 0.22,
          "vel": 93
        },
        {
          "pitch": 70,
          "start": 3.275,
          "dur": 0.22,
          "vel": 98
        },
        {
          "pitch": 70,
          "start": 3.5,
          "dur": 0.22,
          "vel": 52
        },
        {
          "pitch": 70,
          "start": 3.775,
          "dur": 0.22,
          "vel": 55
        },
        {
          "pitch": 70,
          "start": 4,
          "dur": 0.22,
          "vel": 55
        },
        {
          "pitch": 70,
          "start": 4.275,
          "dur": 0.22,
          "vel": 97
        },
        {
          "pitch": 70,
          "start": 4.5,
          "dur": 0.22,
          "vel": 56
        },
        {
          "pitch": 37,
          "start": 4.5,
          "dur": 0.22,
          "vel": 91
        },
        {
          "pitch": 70,
          "start": 4.775,
          "dur": 0.22,
          "vel": 53
        },
        {
          "pitch": 63,
          "start": 4.775,
          "dur": 0.22,
          "vel": 98
        },
        {
          "pitch": 70,
          "start": 5,
          "dur": 0.22,
          "vel": 90
        },
        {
          "pitch": 70,
          "start": 5.275,
          "dur": 0.22,
          "vel": 55
        },
        {
          "pitch": 70,
          "start": 5.5,
          "dur": 0.22,
          "vel": 51
        },
        {
          "pitch": 70,
          "start": 5.775,
          "dur": 0.22,
          "vel": 101
        },
        {
          "pitch": 70,
          "start": 6,
          "dur": 0.22,
          "vel": 48
        },
        {
          "pitch": 63,
          "start": 6,
          "dur": 0.22,
          "vel": 98
        },
        {
          "pitch": 70,
          "start": 6.275,
          "dur": 0.22,
          "vel": 54
        },
        {
          "pitch": 70,
          "start": 6.5,
          "dur": 0.22,
          "vel": 93
        },
        {
          "pitch": 37,
          "start": 6.5,
          "dur": 0.22,
          "vel": 94
        },
        {
          "pitch": 70,
          "start": 6.775,
          "dur": 0.22,
          "vel": 49
        },
        {
          "pitch": 70,
          "start": 7,
          "dur": 0.22,
          "vel": 53
        },
        {
          "pitch": 63,
          "start": 7,
          "dur": 0.22,
          "vel": 101
        },
        {
          "pitch": 70,
          "start": 7.275,
          "dur": 0.22,
          "vel": 93
        },
        {
          "pitch": 70,
          "start": 7.5,
          "dur": 0.22,
          "vel": 54
        },
        {
          "pitch": 70,
          "start": 7.775,
          "dur": 0.22,
          "vel": 51
        },
        {
          "pitch": 70,
          "start": 8,
          "dur": 0.22,
          "vel": 53
        },
        {
          "pitch": 70,
          "start": 8.275,
          "dur": 0.22,
          "vel": 92
        },
        {
          "pitch": 70,
          "start": 8.5,
          "dur": 0.22,
          "vel": 46
        },
        {
          "pitch": 37,
          "start": 8.5,
          "dur": 0.22,
          "vel": 90
        },
        {
          "pitch": 70,
          "start": 8.775,
          "dur": 0.22,
          "vel": 49
        },
        {
          "pitch": 63,
          "start": 8.775,
          "dur": 0.22,
          "vel": 97
        },
        {
          "pitch": 70,
          "start": 9,
          "dur": 0.22,
          "vel": 101
        },
        {
          "pitch": 70,
          "start": 9.275,
          "dur": 0.22,
          "vel": 52
        },
        {
          "pitch": 70,
          "start": 9.5,
          "dur": 0.22,
          "vel": 50
        },
        {
          "pitch": 70,
          "start": 9.775,
          "dur": 0.22,
          "vel": 99
        },
        {
          "pitch": 70,
          "start": 10,
          "dur": 0.22,
          "vel": 46
        },
        {
          "pitch": 63,
          "start": 10,
          "dur": 0.22,
          "vel": 95
        },
        {
          "pitch": 70,
          "start": 10.275,
          "dur": 0.22,
          "vel": 53
        },
        {
          "pitch": 70,
          "start": 10.5,
          "dur": 0.22,
          "vel": 97
        },
        {
          "pitch": 37,
          "start": 10.5,
          "dur": 0.22,
          "vel": 92
        },
        {
          "pitch": 70,
          "start": 10.775,
          "dur": 0.22,
          "vel": 47
        },
        {
          "pitch": 70,
          "start": 11,
          "dur": 0.22,
          "vel": 56
        },
        {
          "pitch": 63,
          "start": 11,
          "dur": 0.22,
          "vel": 99
        },
        {
          "pitch": 70,
          "start": 11.275,
          "dur": 0.22,
          "vel": 94
        },
        {
          "pitch": 70,
          "start": 11.5,
          "dur": 0.22,
          "vel": 51
        },
        {
          "pitch": 70,
          "start": 11.775,
          "dur": 0.22,
          "vel": 56
        },
        {
          "pitch": 70,
          "start": 12,
          "dur": 0.22,
          "vel": 56
        },
        {
          "pitch": 70,
          "start": 12.275,
          "dur": 0.22,
          "vel": 100
        }
      ]
    },
    {
      "id": "sub",
      "name": "Sub Bass",
      "type": "sub",
      "notes": [
        {
          "pitch": 31,
          "start": 0,
          "dur": 3.8,
          "vel": 104
        },
        {
          "pitch": 31,
          "start": 4,
          "dur": 3.8,
          "vel": 104
        },
        {
          "pitch": 36,
          "start": 8,
          "dur": 3.8,
          "vel": 104
        },
        {
          "pitch": 38,
          "start": 12,
          "dur": 3.8,
          "vel": 104
        },
        {
          "pitch": 31,
          "start": 16,
          "dur": 3.8,
          "vel": 104
        },
        {
          "pitch": 31,
          "start": 20,
          "dur": 3.8,
          "vel": 104
        },
        {
          "pitch": 39,
          "start": 24,
          "dur": 3.8,
          "vel": 104
        },
        {
          "pitch": 38,
          "start": 28,
          "dur": 3.8,
          "vel": 104
        }
      ]
    },
    {
      "id": "bass",
      "name": "Bass",
      "type": "bass",
      "notes": [
        {
          "pitch": 43,
          "start": 0,
          "dur": 0.35,
          "vel": 101
        },
        {
          "pitch": 43,
          "start": 0.775,
          "dur": 0.35,
          "vel": 79
        },
        {
          "pitch": 43,
          "start": 1.5,
          "dur": 0.35,
          "vel": 93
        },
        {
          "pitch": 43,
          "start": 2,
          "dur": 0.35,
          "vel": 102
        },
        {
          "pitch": 55,
          "start": 2.775,
          "dur": 0.35,
          "vel": 84
        },
        {
          "pitch": 43,
          "start": 3.5,
          "dur": 0.35,
          "vel": 95
        },
        {
          "pitch": 43,
          "start": 4,
          "dur": 0.35,
          "vel": 105
        },
        {
          "pitch": 43,
          "start": 4.775,
          "dur": 0.35,
          "vel": 77
        },
        {
          "pitch": 55,
          "start": 5.5,
          "dur": 0.35,
          "vel": 84
        },
        {
          "pitch": 43,
          "start": 6,
          "dur": 0.35,
          "vel": 103
        },
        {
          "pitch": 43,
          "start": 6.775,
          "dur": 0.35,
          "vel": 78
        },
        {
          "pitch": 43,
          "start": 7.5,
          "dur": 0.35,
          "vel": 92
        },
        {
          "pitch": 48,
          "start": 8,
          "dur": 0.35,
          "vel": 103
        },
        {
          "pitch": 48,
          "start": 8.775,
          "dur": 0.35,
          "vel": 82
        },
        {
          "pitch": 48,
          "start": 9.5,
          "dur": 0.35,
          "vel": 91
        },
        {
          "pitch": 48,
          "start": 10,
          "dur": 0.35,
          "vel": 101
        },
        {
          "pitch": 48,
          "start": 10.775,
          "dur": 0.35,
          "vel": 80
        },
        {
          "pitch": 48,
          "start": 11.5,
          "dur": 0.35,
          "vel": 96
        },
        {
          "pitch": 50,
          "start": 12,
          "dur": 0.35,
          "vel": 97
        },
        {
          "pitch": 62,
          "start": 12.775,
          "dur": 0.35,
          "vel": 84
        },
        {
          "pitch": 50,
          "start": 13.5,
          "dur": 0.35,
          "vel": 93
        },
        {
          "pitch": 50,
          "start": 14,
          "dur": 0.35,
          "vel": 101
        },
        {
          "pitch": 50,
          "start": 14.775,
          "dur": 0.35,
          "vel": 77
        },
        {
          "pitch": 44,
          "start": 15.5,
          "dur": 0.35,
          "vel": 97
        },
        {
          "pitch": 43,
          "start": 16,
          "dur": 0.35,
          "vel": 102
        },
        {
          "pitch": 43,
          "start": 16.775,
          "dur": 0.35,
          "vel": 77
        },
        {
          "pitch": 55,
          "start": 17.5,
          "dur": 0.35,
          "vel": 84
        },
        {
          "pitch": 43,
          "start": 18,
          "dur": 0.35,
          "vel": 100
        },
        {
          "pitch": 43,
          "start": 18.775,
          "dur": 0.35,
          "vel": 79
        },
        {
          "pitch": 44,
          "start": 19.5,
          "dur": 0.35,
          "vel": 84
        },
        {
          "pitch": 43,
          "start": 20,
          "dur": 0.35,
          "vel": 106
        },
        {
          "pitch": 55,
          "start": 20.775,
          "dur": 0.35,
          "vel": 84
        },
        {
          "pitch": 43,
          "start": 21.5,
          "dur": 0.35,
          "vel": 89
        },
        {
          "pitch": 43,
          "start": 22,
          "dur": 0.35,
          "vel": 98
        },
        {
          "pitch": 43,
          "start": 22.775,
          "dur": 0.35,
          "vel": 81
        },
        {
          "pitch": 50,
          "start": 23.5,
          "dur": 0.35,
          "vel": 94
        },
        {
          "pitch": 63,
          "start": 24,
          "dur": 0.35,
          "vel": 84
        },
        {
          "pitch": 63,
          "start": 24.775,
          "dur": 0.35,
          "vel": 84
        },
        {
          "pitch": 51,
          "start": 25.5,
          "dur": 0.35,
          "vel": 97
        },
        {
          "pitch": 51,
          "start": 26,
          "dur": 0.35,
          "vel": 105
        },
        {
          "pitch": 51,
          "start": 26.775,
          "dur": 0.35,
          "vel": 80
        },
        {
          "pitch": 51,
          "start": 27.5,
          "dur": 0.35,
          "vel": 92
        },
        {
          "pitch": 50,
          "start": 28,
          "dur": 0.35,
          "vel": 104
        },
        {
          "pitch": 62,
          "start": 28.775,
          "dur": 0.35,
          "vel": 84
        },
        {
          "pitch": 50,
          "start": 29.5,
          "dur": 0.35,
          "vel": 91
        },
        {
          "pitch": 62,
          "start": 30,
          "dur": 0.35,
          "vel": 84
        },
        {
          "pitch": 50,
          "start": 30.775,
          "dur": 0.35,
          "vel": 78
        },
        {
          "pitch": 44,
          "start": 31.5,
          "dur": 0.35,
          "vel": 84
        }
      ]
    },
    {
      "id": "chords",
      "name": "Chords",
      "type": "chords",
      "notes": [
        {
          "pitch": null,
          "start": 1.5,
          "dur": 0.18,
          "vel": 68
        },
        {
          "pitch": null,
          "start": 1.5,
          "dur": 0.18,
          "vel": 68
        },
        {
          "pitch": null,
          "start": 1.5,
          "dur": 0.18,
          "vel": 68
        },
        {
          "pitch": null,
          "start": 3.5,
          "dur": 0.18,
          "vel": 74
        },
        {
          "pitch": null,
          "start": 3.5,
          "dur": 0.18,
          "vel": 74
        },
        {
          "pitch": null,
          "start": 3.5,
          "dur": 0.18,
          "vel": 74
        },
        {
          "pitch": null,
          "start": 5.5,
          "dur": 0.18,
          "vel": 66
        },
        {
          "pitch": null,
          "start": 7.5,
          "dur": 0.18,
          "vel": 74
        },
        {
          "pitch": null,
          "start": 9.5,
          "dur": 0.18,
          "vel": 66
        },
        {
          "pitch": null,
          "start": 11.5,
          "dur": 0.18,
          "vel": 80
        },
        {
          "pitch": null,
          "start": 13.5,
          "dur": 0.18,
          "vel": 64
        },
        {
          "pitch": null,
          "start": 15.5,
          "dur": 0.18,
          "vel": 78
        },
        {
          "pitch": null,
          "start": 17.5,
          "dur": 0.18,
          "vel": 68
        },
        {
          "pitch": null,
          "start": 19.5,
          "dur": 0.18,
          "vel": 78
        },
        {
          "pitch": null,
          "start": 21.5,
          "dur": 0.18,
          "vel": 69
        },
        {
          "pitch": null,
          "start": 23.5,
          "dur": 0.18,
          "vel": 78
        },
        {
          "pitch": null,
          "start": 25.5,
          "dur": 0.18,
          "vel": 70
        },
        {
          "pitch": null,
          "start": 27.5,
          "dur": 0.18,
          "vel": 79
        },
        {
          "pitch": null,
          "start": 29.5,
          "dur": 0.18,
          "vel": 68
        },
        {
          "pitch": null,
          "start": 31.5,
          "dur": 0.18,
          "vel": 75
        }
      ]
    },
    {
      "id": "lead",
      "name": "Lead",
      "type": "lead",
      "notes": [
        {
          "pitch": 103,
          "start": 0.5,
          "dur": 0.23,
          "vel": 87
        },
        {
          "pitch": 103,
          "start": 1,
          "dur": 0.23,
          "vel": 95
        },
        {
          "pitch": 106,
          "start": 1.5,
          "dur": 0.23,
          "vel": 80
        },
        {
          "pitch": 103,
          "start": 2.5,
          "dur": 0.23,
          "vel": 88
        },
        {
          "pitch": 110,
          "start": 3,
          "dur": 0.23,
          "vel": 97
        },
        {
          "pitch": 105,
          "start": 3.25,
          "dur": 0.18,
          "vel": 58
        },
        {
          "pitch": 106,
          "start": 3.5,
          "dur": 0.23,
          "vel": 82
        },
        {
          "pitch": 103,
          "start": 4,
          "dur": 0.23,
          "vel": 88
        },
        {
          "pitch": 106,
          "start": 4.75,
          "dur": 0.23,
          "vel": 76
        },
        {
          "pitch": 103,
          "start": 5.5,
          "dur": 0.23,
          "vel": 82
        },
        {
          "pitch": 106,
          "start": 6,
          "dur": 0.23,
          "vel": 88
        },
        {
          "pitch": 106,
          "start": 6.75,
          "dur": 0.23,
          "vel": 70
        },
        {
          "pitch": 105,
          "start": 7.25,
          "dur": 0.18,
          "vel": 58
        },
        {
          "pitch": 103,
          "start": 7.5,
          "dur": 0.23,
          "vel": 88
        },
        {
          "pitch": 108,
          "start": 8.5,
          "dur": 0.23,
          "vel": 82
        },
        {
          "pitch": 108,
          "start": 9,
          "dur": 0.23,
          "vel": 92
        },
        {
          "pitch": 111,
          "start": 9.25,
          "dur": 0.18,
          "vel": 58
        },
        {
          "pitch": 111,
          "start": 9.5,
          "dur": 0.23,
          "vel": 81
        },
        {
          "pitch": 108,
          "start": 10.5,
          "dur": 0.23,
          "vel": 89
        },
        {
          "pitch": 115,
          "start": 11,
          "dur": 0.23,
          "vel": 97
        },
        {
          "pitch": 111,
          "start": 11.5,
          "dur": 0.23,
          "vel": 89
        },
        {
          "pitch": 110,
          "start": 12,
          "dur": 0.23,
          "vel": 94
        },
        {
          "pitch": 111,
          "start": 12.5,
          "dur": 0.18,
          "vel": 58
        },
        {
          "pitch": 113,
          "start": 12.75,
          "dur": 0.23,
          "vel": 69
        },
        {
          "pitch": 110,
          "start": 13.5,
          "dur": 0.23,
          "vel": 81
        },
        {
          "pitch": 113,
          "start": 14,
          "dur": 0.23,
          "vel": 89
        },
        {
          "pitch": 113,
          "start": 14.75,
          "dur": 0.23,
          "vel": 75
        },
        {
          "pitch": 108,
          "start": 15.25,
          "dur": 0.18,
          "vel": 58
        },
        {
          "pitch": 110,
          "start": 15.5,
          "dur": 0.23,
          "vel": 87
        },
        {
          "pitch": 103,
          "start": 16.5,
          "dur": 0.23,
          "vel": 83
        },
        {
          "pitch": 103,
          "start": 17,
          "dur": 0.23,
          "vel": 89
        },
        {
          "pitch": 106,
          "start": 17.5,
          "dur": 0.23,
          "vel": 80
        },
        {
          "pitch": 103,
          "start": 18.5,
          "dur": 0.23,
          "vel": 88
        },
        {
          "pitch": 111,
          "start": 18.75,
          "dur": 0.18,
          "vel": 58
        },
        {
          "pitch": 110,
          "start": 19,
          "dur": 0.23,
          "vel": 88
        },
        {
          "pitch": 106,
          "start": 19.5,
          "dur": 0.23,
          "vel": 82
        },
        {
          "pitch": 103,
          "start": 20,
          "dur": 0.23,
          "vel": 92
        },
        {
          "pitch": 106,
          "start": 20.75,
          "dur": 0.23,
          "vel": 73
        },
        {
          "pitch": 103,
          "start": 21.25,
          "dur": 0.18,
          "vel": 58
        },
        {
          "pitch": 103,
          "start": 21.5,
          "dur": 0.23,
          "vel": 85
        },
        {
          "pitch": 106,
          "start": 21.75,
          "dur": 0.18,
          "vel": 58
        },
        {
          "pitch": 106,
          "start": 22,
          "dur": 0.23,
          "vel": 93
        },
        {
          "pitch": 106,
          "start": 22.75,
          "dur": 0.23,
          "vel": 71
        },
        {
          "pitch": 103,
          "start": 23.5,
          "dur": 0.23,
          "vel": 80
        },
        {
          "pitch": 118,
          "start": 24.5,
          "dur": 0.23,
          "vel": 89
        },
        {
          "pitch": 118,
          "start": 25,
          "dur": 0.23,
          "vel": 94
        },
        {
          "pitch": 122,
          "start": 25.5,
          "dur": 0.23,
          "vel": 89
        },
        {
          "pitch": 130,
          "start": 26.25,
          "dur": 0.18,
          "vel": 58
        },
        {
          "pitch": 130,
          "start": 26.5,
          "dur": 0.23,
          "vel": 87
        },
        {
          "pitch": 125,
          "start": 27,
          "dur": 0.23,
          "vel": 95
        },
        {
          "pitch": 122,
          "start": 27.5,
          "dur": 0.23,
          "vel": 80
        },
        {
          "pitch": 110,
          "start": 28,
          "dur": 0.23,
          "vel": 93
        },
        {
          "pitch": 113,
          "start": 28.75,
          "dur": 0.23,
          "vel": 69
        },
        {
          "pitch": 111,
          "start": 29.25,
          "dur": 0.18,
          "vel": 58
        },
        {
          "pitch": 110,
          "start": 29.5,
          "dur": 0.23,
          "vel": 81
        },
        {
          "pitch": 111,
          "start": 29.75,
          "dur": 0.18,
          "vel": 58
        },
        {
          "pitch": 113,
          "start": 30,
          "dur": 0.23,
          "vel": 91
        },
        {
          "pitch": 110,
          "start": 30.75,
          "dur": 0.23,
          "vel": 71
        },
        {
          "pitch": 110,
          "start": 31.5,
          "dur": 1.25,
          "vel": 81
        }
      ]
    },
    {
      "id": "guide",
      "name": "Piano Hook Guide",
      "type": "guide",
      "notes": [
        {
          "pitch": 79,
          "start": 0.5,
          "dur": 0.45,
          "vel": 69
        },
        {
          "pitch": 79,
          "start": 1,
          "dur": 0.45,
          "vel": 77
        },
        {
          "pitch": 74,
          "start": 3,
          "dur": 0.45,
          "vel": 79
        },
        {
          "pitch": 79,
          "start": 11,
          "dur": 0.45,
          "vel": 79
        },
        {
          "pitch": 74,
          "start": 12,
          "dur": 0.45,
          "vel": 76
        },
        {
          "pitch": 82,
          "start": 25,
          "dur": 0.45,
          "vel": 76
        },
        {
          "pitch": 77,
          "start": 27,
          "dur": 0.45,
          "vel": 77
        },
        {
          "pitch": 74,
          "start": 31.5,
          "dur": 1.25,
          "vel": 63
        }
      ]
    }
  ]
}